<svg xmlns="http://www.w3.org/2000/svg" id="svg3189" width="1251.928" height="1166.737" viewBox="0 0 331.239 308.699"><g id="layer1" transform="translate(44.213 -76.589)"><path id="path46" d="M162.2 247.8q0 .3.2.5l-2.3-1.8 1.4.6.6.2zm121.3-1-.5 2.4-.7 2.5-.5 1.6-.6 2.6-.6 2.7-.9 4.7-1.3 4-2 4v.2l-1 1.8-.4.7-1.3 2-1.3 1.4a13 13 0 0 1-4.2 2.5q-2 .8-3.7 1.2l-2 .6-5 .9-1 .2q-3.2.3-6.2 1.7a8 8 0 0 0-3.7 4.2q-1 2.6-.5 6.5a23 23 0 0 0 1 4.8l.3 1 .7 2.3.3 1.3v.3l.2.7.2.8.5 4.2-.2 2.4-.5 2.4-.9 2.9v.2l-1 2.8-.8 1.5-1.5 2.2-1 1.2-2.3 3.1-1.6 2.3-1 1.3-.2.4-.5.6-.2.2-.2.3-.5.5-.4.5-1 .9-.4.4-1 .9-.5.4-1 .8-.9.8-2.3 2-1 .6a38 38 0 0 1-9.1 3.4l-4.5.2-1.8-.1q-.7 0-1.3-.3l-1.3-.4-1.8-.8-3.4-1.4-5.3-1.7h-.2l-1.7-.6-1.6-.5-4.1-2-2.5-1.7-.9-.7-.8-.6-.3-4-.1-3v-9.4l-.7-3.6a26 26 0 0 0-3-7l-1.6-2.4-.5-.7-1-1.4-.6-.8-1-1.5-.4-.5-2.6-4-1.4-2.4-.6-1.2-.3-.5-1-2.3-1-3-.4-1.6q-2-5.9-4-10-1-2.2-2.8-4.6L163 269l-2.5-3.2-1.4-2-.8-1.4q-1.4-2-3.2-3.9l-3.4-3.2-1.9-1.6-1-.7-.5-1-.9-1.4-.5-.9-1.6-2.5-.1-.2a3 3 0 0 0 0-1.6l.3.2 3.6 2.2.1.1.5.7.4.5.2.3a4 4 0 0 0 2.7 1.3h.5a2 2 0 0 0 1.2-.7l.6.6v.1l2 2.3.3.4 1.5 2 .2.2 1 1.2v.1l.2 1 .3.7q.5.8 1.3 1.2.7.4 1.5.4h.3q.8-.2 1-.7l.3.4 2.3 3.8 5.3 9 .4.6 1 1.6.6.8.7 1 1.4 2 1.1 1.4.8 1 .6.8 1.1 1.5 1.4 1.8 1.4 1.8 1.7 2.3v.1l.1.1v.2l1.4 1.9 1.3 2.1 2 3.4-1-2.2-1.1-2.4-.6-1.2-.6-1-1.2-2.1-1-1.6-.5-.8-.4-.7q-.2-.1-.2-.3l-1.3-1.9-1.6-2.2-1.3-1.8-1.3-1.9-1.7-2.2-.2-.4-1-1.6-.6-.8-1.5-2.6-2.4-4-2.9-4.9-1.3-2.1.1-.6v-.8l-.1-.2v.2l1.2 1.8 2.5 3.7v.1h.1v.2h.1l1.1 1.6 1.7 2.3.9 1.1 1.8 2.4 3.4 4 1.4 1.5 1.8 2.1 1.5 1.7 1.4 1.6h.1l.2.2h-.1l.6.6 1.4 1.7.5.5v.1h.1v.1q1.6 1.7 2.8 3.3l6.7 8.1 3.5 4.1 3.4 4 .2.2.9 1 1.8 2 1.3 1.5.5.5-.7-1-3-4.1-3.1-4.4-3.2-4-3.2-4.2-3.6-4.4-1.3-1.5-1.2-1.5-.5-.6v-.1l-.2-.1-.1-.1-.4-.5-1.6-1.8-.3-.4-.2-.1v-.1l-1.5-1.7-1.5-1.6-1.5-1.7-1.5-1.7-2.7-3.2-2.3-2.7-1.2-1.6-2.1-2.6-1.1-1.5-2.1-2.7-3.2-4.2-3.8-5.1 3 5 1 1.5-.7-.4a2 2 0 0 0-.8-1l-.7-.1-.5-.8-1-1.2-2.9-3.4-.1-.1-1.6-1.8-.9-.9-.7-.8-1.9-1.6-1-.7.6.2 1.8.9q.4 0 .8.3l.6.3.8.4.7.2.3.2.6.2.8.3 2.5 2.5 3.4 3.4 1.7 1.8 2 2.1.1.2.2.2 1.8 2 .6.7h.1v.2l1.5 1.6v-.1q2.1 2.6 4.6 5l3.2 3.3 1.9 1.9 1.2 1.1.8.8 3.8 3.4-1.4-1.6-.1-.1-.1-.1-1.8-2v-.1l-.1-.1-.3-.3-.1-.1-1.4-1.6-2-2.4-1.4-1.6-1-1.1-2.4-2.7-2.2-2.5-3.2-3.5-1.7-1.8-1.3-1.2-.8-.7-.6-.6h-.2l-1.6-1.5-.4-.3-.8-.7.7.1q.6 0 1-.2.5 0 .8-.6h.1l1.4 1.2 1.5 1.4 2.1 2.1 1.5 1.4 3.6 3.7 3.8 3.8 4 4.2 1.4 1.5 1.8 1.8 2.3 2.2 1.8 1.8 3.8 3 2 1.6 2.1 1.4 1.6 1 .7.4 2.9 1.6-2.4-1.7-1.5-1.1-1.5-1.2-1.9-1.5-1-.9-1-1-.7-.6-1.2-1.2-1.9-1.8-1.5-1.6-4-4-7-7.3-1.8-1.8-2-2-1.6-1.5q-1.3-1-2.5-2.2l-.1-.1-.2-.1-.1-.1-.1-.2v.1l-.2-.2-.4-.4-.5-.4-2.6-2 .2-.8-.1-.7v-.2l-.2-.6a2 2 0 0 0-1-1 3 3 0 0 0-1.6-.5h-.3l-.4-.2q-.8-.4-1.7-.6h-.2l-.7.3-.2-.2-1.7-1 1.8 1.4-.1.1v.5l-1.2-.5-1.5-.5-1.5-.7-.3-.2-.5-.2-2-.9-2.7-1.3-.5-.3-1.6-.8-2.3-1.2-1.2-.7-4.1-2.2h.3l1-.3.5-.3a1 1 0 0 0 .5-1q-.2-.5-.6-.6h.7l.5.1 1.3.6.9.4.6.3h.2l.8.4 1.2.5q2.7 1 5.1 1.6l2.5 1.1 2 1 .5.3 1 .5 1.6 1 1.8 1 2.3 1.5 4.4 3 4 2.6 4 2.8q.8.4 1.5 1 .4 0 .7.3l1.5.9 1 .5.2.1.6.3 1.5.7h-.1q.4 0 .8.3l1.3.6 2.4 1 3 1 2 .8 1.8.5.8.2 3 .8 2.3.5 6.4 1.1-4.9-1.4-1.5-.4-1.7-.5-3.3-1.1-1-.4-2.8-1-.9-.4-1.7-.7-2-.8-2.4-1.1h-.1l-1-.5h.2l-1.5-.6-.7-.4-2.7-1.5-2.6-1.7-2.9-2-4.3-2.8-2.2-1.5-2.3-1.5-2.3-1.5-2.2-1.4-.3-.2q-.5 0-.8-.4h-.2q.7-.4 1-1.2l.1-.4.6-.6a2 2 0 0 0 .1-1.4q-.1-.5-.7-.8l.2-.4v-1l1.6.1h.7l2 .2h5.1l2.6-.2 5.9-.1h13.6l2.5-.1 5.5-.3 2-.1 1-.1 1.2-.2 2-.2q3.4-.3 6.7-1l-2.6.2-5.7.2h-27.9l-5.1.2h-2.8l-1.6.1.4-.6 3.2-.2 2.6-.1 2-.2 4.7-.4 1.7-.2 2.7-.3 1.6-.2 2.7-.4 1.8-.3 2.3-.4.7-.2 1.4-.3 1.4-.3.6-.2 2.3-.6 1.8-.5 2.4-.7 1.9-.6 4.2-1.4 2-.7 1.5-.5.6-.2 2.2-.6 2.2-.7a55 55 0 0 1 20.4-1v.1l4.3 1q3 1 6 2.4l3.2 1.5 1 .5 3.1 1.8a25 25 0 0 1 4 3.2l2 2.3-1.4-2.2-1.6-1.8-2-1.8-2.3-1.7-1.4-.9-2.2-1.2-3.3-1.7q-2.8-1.3-5.7-2.2a36 36 0 0 0-6-1l-6.2-.4q-3.3 0-6.3.5l-5 .9-1.3.3-2.1.6-1.5.4-.5.2-8.4 2.8-2 .6-2.3.7-2 .5-2.1.6-2 .5-1.4.3-.5.1-2.3.5-1.8.3-2.4.3-1.7.3-4.3.4-3.8.4-2.7.2-6.1.3q.1-.7-.4-1l-.2-.1-.4-.3-.5-.1-1-.1h-.8l-.8-.1-1-.1h-.7l-.5-.2-.5-.2-.9-.4-.5-.2h3.9l5.2-.2q1.4 0 2.7-.2 1.8 0 3.5-.3h.9v-.1l1-.1 1.9-.3 2-.2 3.7-.6 2.3-.4 1.9-.4.7-.2 3.5-.8 2.3-.8 2.3-.7 6-2.2 2.6-.8 2.4-.7 2.5-.8 3-.8 3.5-.7h.5l1.1-.2 1.8-.3 1.8-.1 1.2-.1h.5l3.8-.1 3.5.1 3.1.3 1.3.2 1.5.2 1.2.2 1 .2 1.2.3 1.2.3v.1l-.5-.3-.6-.2-1.3-.5-1.4-.4-.7-.2-1-.2-1.5-.4-.7-.2-1.6-.3-1.1-.2-1.4-.1-2.7-.3h-4.3l-2 .1h-.9l-1.7.3-1.6.2-.9.2-2 .5-.8.2-3.2.8-2.8.8-2.5.8-2.4.7-2.7 1-3.1 1.2-.8.2-1.9.6-1.2.4-1 .3-3 .7-4.8 1-5.6.8-2.8.4-3.3.5-2.1.3-3.1.4-3.5.4-2.2.2h-.3l-1.6.2h-.5l-4.6-2-1.3-.7-1.3-.5h3.4l1 .1h1l2.4.1a4 4 0 0 0 3.4 2q.5 0 1.3-.3l.6-.5.2-.2q.6-.3.8-1l.2-.1q.6-.4.5-1.1-.4-.8-1-1l-1-.8a4 4 0 0 0-1.7-.7h-.8l-1 .1-1.2.5q-1 0-2-.4h-.4l-1.3-.3h.4l.2-.1.5-.2.3-.1 1.8-.7 1.7-.6h.2l.5-.3.3-.1 1.6-.8h.6l2 .1h.8l.7.1h.5l1 .2h.4q2 .2 3.7.6h.4l.1.3v.4l.3.8q.5.8 1.3 1.2l1.4.3h.2q.5 0 .8-.2 1-.2 1.3-.7a2 2 0 0 0 0-1.9q0-.8-.6-1.5 0-.2-.2-.2l1.8-.9 3-1.4 2.8-1.4 3-1.2 3.5-1.2h.2q.5 0 .8-.2l.4-.2 2.3-.7h.1l3.9-1 2.6-.6 1-.2 1-.2 1.7-.3h.6l1.6-.3 1-.2 2.4-.2h1l-3-.2h-2.2l-1 .1h-.8l-2.5.3-.7.1-1.6.2-1.7.3-3 .6-2 .5-.2-.8a3 3 0 0 0-1-1.3l-.6-.4-1-.2-.7-.1-1.9-.2h-2.1a18 18 0 0 0-4 .8l-2.1.8-1.8.9-1.1.6-.4.2 2.9-2.1.7-.6.4-.2 1.4-1 3-2.1 1.5-.9.4-.2 2.5-1.4 1.6-.8.5-.3 1.4-.7.2-.1.4-.2 1.5-.7 2.6-1.1a60 60 0 0 1 6.6-2.2l4.2-.8 1.4-.3 1.3-.2h.7l.2-.1 2-.3 5.5-.3h.7l2-.1h5.5a48 48 0 0 1 8.3 1.3l1.2.3 1 .2.8.3.8.2.4.2 1 .3 1.2.5 1.3.5.7.3 3.6 1.7 4.2 2.2.3.1.8.5.4.3.9.5.9.6 1.3.9.3.2 2.1 1.7.6.5 2.3 1.9 2.8 2.3.3.2a63 63 0 0 1 6.3 6.1l2.5 3.9.4.7 1.3 2.2.4.7 1.7 3.4a23 23 0 0 1 1.3 5l.2 2.8v1.2l.2 1.4.7 8zm-170 26.4v-.4zm71.4 68.4v.5l-.4 3-.7 3-.1.5-.5 1.7-.2.6-.3.7-1.4 4.3-.1.6-1.3 4.6-.9 2.2-.7 1.4-.7 1-2.2 1.8q-2.3 1.8-5 3.2l-2.4 1-4.7 1.6-1 .3-2 .6-6.8 2q-.9 0-1.8.4l-1.8.4-3.9 1-5.2 1.5-2.9.9-1.9.4-.4.1-1.8.4-1 .1-.6.1-5.6.5h-.4l-2.7-.5-2.2-.9-.7-.3-2.9-1.6-1.3-1q-1.2-1-2.1-2l-.6-.5-.2-.2-2.3-2.3-1.2-1.4-.6-.6.2-2q0-1.5-.4-3v-.5l-.5-2.6v-1.1q0-1.5-.3-3l-.7-1.9-1-1.1-.7-.6-.4-.3-.2-.2q.1.4.5.7l.2.2.5.6.3.6.3.6.1.6.2 1v.8l-.2 1.6-.2 2.4.1 1.8v3.6l-.4 1.5-.6 1.6-.7 1.6v.1l-1 1.7-1 1.4-2 2v.1l-3 2.3-1.4.5-1 .1H94q-3.5-.8-6.7-1.9H87l-4.2-1.5-4.5-1.8-1-.6-.4-.1-.8-.4-.4-.3-1.7-1-.9-.5-.3-.2-.7-.5-1.8-1.4-.2-.1-1.7-1.6-2-2v-.1q-1.4-1.4-2.5-3.2l-.7-1.1-.5-1-.4-1.4-.2-2.6.2-1.7.1-1.1q.2-1.3 0-3.1l-.6-2-.9-2v-.3a9 9 0 0 0-2.4-3.6q-1-.8-2.5-1.3l-2.3-.8-2.5-.5H51l-4.9-1.2q-2-.7-3.7-1.7H42l-.8-.4-3.4-1.9-1.6-1.1-1.4-1.3-1-1.3-1-1.6-.8-2-.7-2.3-.4-2.1v-2.5a20 20 0 0 1 1.2-6l1-2.7 2-3.4 1.4-2 3.3-4.8 3-4 .5-.6 3.2-4.3 1.3-2 1.8-2.6 3.5-4.9 3.2-4q3.8-5.1 7-8.7l1.1-1.3.3-.3.2-.2.3-.1 1.5-1q.7-.5 1-1.2l.2-.7 1.3-1.1 1.8-1.5.8-.6.3-.2 1-.8.2-.2h.1l1.5-1 .2-.2 1-.7.5-.3h.2l1.2-.8 1-.5.8-.5 1.3-.7.7-.3 1.2-.5.5-.2 3-1.2.4-.2 3.4-1-.3.1-.3.2-.5.4-.5.3-.7.2-1.7.7q-1 .5-1.6 1.1l-.9 1.1a1 1 0 0 0 0 .9q-.1.8.4 1.4l.6.5.7.2-.5.4-.5.4-.9.7-2.7 2.7q-.9 1.2-1.2 2.5H79q-1 0-1.7.5a2 2 0 0 0-.7 1.3q0 .8.5 1.6a4 4 0 0 0 2.2 1.5l.8.1-.5.5-1.7 2-.6.6-1 1.3q-.4.4-.6 1l-.8 1-1.1 1.8-1.8 2.7-2.1 3-6 8-3.2 4.5-1.4 1.9-1.5 2.2.5-.6 2-2.2 2-2.3q3.5-3.9 6.8-8t6-8.4l1.2-1.8.6-.9.4-.6.2-.3 1.4-1.8 1.6-1.7 1.4-1.4.6-.7q.3 0 .5-.3.7-.5.9-1l.9-1 2.3-2 .8-.8q.5.3 1 .3h.1q.6 0 1.2-.4l1.7-1.4.3-.3.3-.3.6-.7.5-.7q.2-.3.2-.8v-.4l1.8-1.4.1.3q.5.6 1 .8l.8.1h.3l-1.5 1.3-2 1.6-2 1.7-2 1.7-3.8 3.6-1.8 1.9-1.7 1.9-1.7 2-1.6 2-1.5 1.9-.8 1-.8 1-3 4.4-1.6 2-.7 1-.6 1-1.4 2.2-1.6 2.4-2.7 4.1-1.3 2-1.4 2-1.1 1.5-.5.6-1.8 2.2-.5.7-.2.2-1 1.2-1.2 1.5-1.3 1.4-3.2 3.4 4.4-3.8 3.7-3.8 1.8-2 1.7-1.9.7-.9.7-1 1.5-2 1.4-2 1.6-2.4v-.1l1.6-2.5 1.4-2 2-3q1-1.6 2.2-3.1l3-4.2 1.6-2 1.5-2 1.5-1.8 1.7-1.8 1-1 .8-1 1.8-1.7 1.8-1.7 1.9-1.6 3.6-3.1 2-1.8 1.8-1.8 1.8-2 .6-.8.5-.7.2-.3 1-1.6.4-.6.5-1 .6-1.1q1 .7 2 .7a2 2 0 0 0 1.4-.4l.6-.2.9-.2.7-.3.5-.5v-.7a1 1 0 0 0-.8-.6 3 3 0 0 0-1-2.1l-.6-.4.2-.2.4-.5.2-.1 2.2-1 .5-.2.3-.1.4-.2-.4 1.9-.3 1.6-.3 1.8-.6.8-1.2 1.6-.5.7-2 2.6-.3.3-.1.2-1 1.2-.2.2-.6.7-1.2 1.5-1.8 2-1 1.2-.8 1-.4-.1h-.6l.4-.4 2.8-4 3.8-5.4-1.3 1.6-1.8 2.1-2 2.4-1.8 2-2.1 2.5q-1.5.6-2 2.2l-.8 1-2 2.2-6.7 8-6.6 7.7-1.3 1.7-1 1.2-1.6 2-1 1.5-.9 1.1-.6.9-1.3 2.1-1 1.6-.4.7-.8 1.4-.5 1v.1l-.1.2v.1l-.3.5-.3.7-.3.5v.1l-.1.2-.3.7-.6 1.4-.7 1.8-.7 1.8-.7 2-.5 1.6-.2.8-.6 2.6-1 5.4-.7 4.8-.2 2.7-.2 2.9.5-2.8a132 132 0 0 1 2.4-10.6l.6-2.4.3-1.2.3-1.1.8-2.4 1.4-3.7.7-1.7.6-1.3.2-.6v-.1l.1-.1.1-.2.2-.5.4-.8v.1l.2-.6.1-.1.7-1.4.6-1.1 1.6-2.6 1.2-1.8.4-.7 1-1.3 1.4-1.9 1.5-2 1.8-2.2 2-2.4 4.3-5 3.2-4 3.5-4 1-1.3 1.2-1.5.2-.1.2.2q.3.8 1 1.2.3.3.8.2h.7q.9-.4 1.5-1l.4-.4.6-.4a4 4 0 0 0 1.1-1.4l.3-.8-.1-.8-.3-.5.5-.7 1.8-2.1 1-1.2v.1l1.3-1.5.6-.8 1.2-1.5.4-.4 1.5-2 .4-.5-.4 1.6-.3 1q0 .7-.3 1.2v.2l-.1.2-.3.9h-.4q-.6 0-1.1.2t-1 .9l-.5 1q-.2.8 0 1.4l.1.7.4.5.5.5-.4 1-2.8 5.5-5 9.2-2.5 4.3-2.7 5-2.4 4.7q-1.2 2.1-2.1 4.4-2.2 5-4 10.1l-1.4 4.5-.7 2.5-1 4 .7-2 2-5.1q0-.6.4-1l.7-1.7 1-2.3 1.9-4.3 1-2.5 1.2-2.4 1.4-3 1.6-3.1 2.6-4.8 2.7-4.8 4.8-8.6 2.6-5.1 1.2-2.4.8-1.7h.1l.9-.3.4-.2.5-.2a2 2 0 0 0 1-2.1 3 3 0 0 0-.7-1.6l.2-.2v-.1l.9-1.5.3-.6.4-.7.2-.3q0-.4.3-.8l.7-1.5.7-1.5.6-1.4.2-.6.1-.3.1-.2q0 .6.5 1.2l.6.5-.3 1.2-.6 2.8-.5 2.2-.7 1.2-.6 1-.6 1v.2l-1.6 3q-1.2 2.4-2 5.5l-.8.2-.7.5-.5.7a4 4 0 0 0-.6 1.7q0 1 .2 1.6.3 1 1 1.5t1 .4l-.5 1.8-1.2 3.2-1.7 4.4-1.7 5-.3.9-.5 1.6-.6 1.7-.5 1.4-.6 1.4-.3.7-.3.9v.1-.1l.1-.3.9-1.5 1-2.2q.4-.5.6-1.2l2.1-4.8 1.9-4.4.7-1.7.4-1 1.1-2.7.7-2 .6-1.8h.1q.6-.8.7-1.4l.2-.8.6-.9v-.6l-.2-.5.3-.7v-.4l1-3.2.5-1.8.1-.5q.4.7.8 1l.3.2v.5l-.3 1.2-.2 1-.6 2.5-1.1 5-2.5 10.8-.5 2.2-.5 2.3-.5 1.8-.2.7-.5 1.6q0 .6-.3 1v.2l-.8 2.6-.9 2.3-.6 1.7-2 5.3-.9 2-1.3 3.3 2.6-4.8.9-1.8.9-1.7v-.2l.1-.1v-.1l.2-.3 1-2.3.6-1.4.6-1.4.6-1.4.5-1.4v-.3l.6-1.7.3-.9.7-2.8.2-.9.5-1.8.4-2.2 1.2-5.5.4-2 .4-1.9.2-1v-.2l.2-1q0 .7.5 1.6.5.6 1.3.7h.2l.4.2h.2q.7 0 1.1-.5l.4-.8q1-.4 1.1-1.3a3 3 0 0 0 .1-1.6l-.3-.9-.2-.3v-.3a1 1 0 0 0-.7-.7v-.1l.1-1.3A37 37 0 0 1 124 263l.3-.8 1-2.4.6-1.5.3-.7.1-.4.4-.9.3-.8.1-.3.4-1 .4-1.5.6 2.4v.5l-.2 4v.1l-.5 3-.6 2.8-.8 2.7-.3.8v.3l-.5 1.6a5 5 0 0 0-.1 2.2l.1 1.7q.3.8 1 1.3v.9l-.6 2.9-.8 4.8-.9 5.7-.6 5.1v1l-.2 1.8-.1 2.4-.1 6.5.2-2 .3-2.8v-.3l.4-3 .2-1 .3-1.9.3-2.1.5-2.5 1-5.2 1-5.7.3-2.1.4-2h.2q.6-.3 1-.9l.4-.5q.5-.6.5-1.2l.1-1.1v-1.4l-.2-.8v-.1l-.2-.5-.3-.4-.2-.2-.3-.2.1-1 .3-2.4q0-1.7.3-3.5l.4 2.4.6 3.1.4 2 .6 3 .6 2.6v-.1l.2 1.2.4 2.6.3 1.2v3.7q0 .8.4 1.8l.2.4.3.5-1.2 1.4q-.6.9-.8 1.8 0 .8.3 1.5l.8.7 1.3.3h.4l1.5-.6.6.2.9-.3.7-.9-.2.8-.3 2-1 5.8-.6 4.6-.4 2.7-.3 1.6-.1 1-.2 2.2-.1 1.3-.1 1-.2 2.8.7-3.7.5-2.9.6-2.6 1-4.7 2-10 .8-5.6.3-2.3.4-3.3.2-1.8.2-.1.7-.5q1-1.2.8-3.1a2 2 0 0 0-1-1.3l-.2-.1-.2-.7v-1l1-.1.7-.4q.4-.3.5-.6l.3-.7v-.5l.1-.7-.3-.7-.8-.7-.6-.4-1-.2-.1-2.2.3.2h1.6a3 3 0 0 0 1.4-1 3 3 0 0 0 .7-1.6q0-1-.2-1.8t-1-1.3l-1.4-.5h-.3v-1.1l-.4-2.6a36 36 0 0 0-2.2-7.5h.2l1.3.2.4 1-.2-1 1.5 3.4.8 3 .3 1.1.2.9.6 2.3.2.6q1 3.7 2.7 6.6a7 7 0 0 0 2.1 2.3v.5c.2 1.2 1.3 1.8 2.2 2.1l.4 1.5.3 1 .3 1.5.7 2.6.6 2.4.4 1.3.4 1 .1.3.2.1v-.1h-.1v-.2l-.4-1.5-.1-1-.2-1v.1l-.1-1-.4-2.7-.5-2.5q0-.9-.3-1.7.4 0 .7-.2l1 2.9.9 2.4 1 2.4.3 1 .5 1.4.3 1.1.4 1.2.7 2.6.4 1.5q0 .6.3 1.1l.7 2.5v.2l.5 1.4.4 1.4 1.1 3 1 2.8 1 2.4 1 2.3.9 2.4q-.4-2.3-1.2-4.5l-.4-1.5-.4-1.3-.9-3-.4-1.2v-.2l-.5-1.5-.6-2.5-.5-1.9-1.2-4.9-.7-2.5-.4-1.4-.4-1-.5-1.4-.4-1.2-2.6-7q.3-.8.2-1.3.5-.7.3-1.5t-1-1.3l-1-.4-.2-.9-.4-1-.4-1.2-.5-1.4-.4-1v-.2l-.1-.1q0-.2-.2-.3v-.2.1l-.1-.3-.1-.2-.1-.3-.1-.2v-.1l-.1-.1v-.1l-.1-.1v-.2l-.2-.2v.1-.2l3 3.8 1.4 2.3.9 1.5a37 37 0 0 0 3 4.7l1 1.2 2.2 3q.8 1 1.2 2a72 72 0 0 1 3.3 7.8l1.2 3.6.7 2.2a37 37 0 0 0 5 9.8l.1.3 2.7 4 .5.6 1 1.5.6.7 1 1.4.4.7a31 31 0 0 1 2.5 4.9 26 26 0 0 1 1.1 5.1q.2 3 0 5.8v2l.2 3.7-.2-.3-.2-.4v-1q-.5 1 0 2l.4 1 .2 1.8zm-119-76.4-.4-.1 1-.8 2.1-1.4-.5.4-.1.1-1.7 1.5zm8-15.2-.1.2-.6.4-.7.6-.7.5-.2.2-2.1 1.6-.3-.1-1.4-.5 1.3-.7zm-45.3 66.6h-.2l-3.7.8-1.3.5-1 .4-.4.1h-1.1l-.6.1-.7.4-.3.2-.3-.3-1-.9-1-.7-1-1-.9-1-.3-.4-.7-.8-1.7-1.6q-1.5-1.2-2.9-2l-.4-.2-1-.5-1.9-.9-2-.5-3-.5q-1 0-2-.3l-2.6-.6-2.4-1-4.8-2.2-2.2-1.2-1-.7-.8-.8-.8-1-.6-1-.9-2-1.2-4-1-3-1-3.5q-.5-1-.6-2.3l-.2-.6-.2-1.4v-.3l-.2-.9-.1-1.3-.2-1.2q-.2-3-.2-6.3l.2-2.3 1-3.5v-.4l1.2-4.2.3-1.2.5-1.4 1.1-4 .8-2.5.5-2 .2-.6.2-.9.1-.5v-.4l.3-.7.1-.9.4-1.8v-.6a29 29 0 0 0 .5-5.2v-1.5l-.1-1.5-.3-3a29 29 0 0 0-2.2-8.7l-.7-1.6-.9-2-.3-.6-1-2-.4-.6-1-1.7-.5-.6-1.3-1.8-.3-.5-3.5-4.1-.8-1-2.7-3.1-.6-.7-1.2-1.6-.5-.7-1.2-1.6-.4-.7-.4-.7-.3-.4-.6-1-1.1-2.2-.3-.4-2.6-5.9-.9-3.1-.3-1.6v-.7l.1-1 .8-2.4 1.5-2.2 1-1a21 21 0 0 1 4.6-3l2.1-1.1 1.8-.9 8.8-4a180 180 0 0 1 12-5h.2l1.2-.4q.1 2.5.7 4.7l1.2 4a29 29 0 0 0 11.3 14.1 37 37 0 0 0 5.6 2.8l3 1.2.7.3.3.1 1.3.5.5.1 2.4.8.6.1 1.9.6 3.3.8 1.8.3.9.2 3 .6 2 .4 6.8 1.4 4 .8 4.3.9 6.9 1.4 11.1 2.6h.2l11 2.7 5 1.2.6.2 1.9.5 1 .3 1.8.6 2.1.7 4.4 1.5.3.1.3.1v1q0 .9.5 1.6l1.2 1.4q.8.7 1.5 1l.3.1.5.9-.7-.5h-.2l-.7-.6-2-1.4-1-.5-.3-.2-.6-.4-.8-.5-.6-.3-.3-.2-.5-.3-.8-.4-.6-.3a3 3 0 0 0-1.2-1.9l-.3-.1q-.5-.5-1.1-.7h-.5q-.7 0-1 .4l-.4.3-.6.3-.8.7q-.1.4 0 .8l-1.8-.6-.6-.1-.1-1.2c-.3-1-1-2.1-2.1-2.2H79q-1.5.6-2 2.6c-.1 1 .1 2.4 1.1 3.1a3 3 0 0 0 1.7.5l.7-.1.6-.5.4-.4h.4l.6.2 1.5.5 1 .5 5.3 2.9 1 .5.8.5.2.1.6.4 1.6 1 1.3.8h-.1l1.6 1-.3.5-1.4-.7-4-1.5-2.2-.6-1.5-.2h-.4l-1 .2-.4.2-.7-.2-.7-.4-.6-.1h-.2l-1.8-.7q0-1-.3-2-.7-1.7-2.5-1.8h-.2q-1 0-1.6.6-.2 0-.3.2l-.3.3q-.6.5-.9 1.5v1l-2.2-1.7q-1-.9-2-1.5l-.4-.3q-.3-.7-.9-1a2 2 0 0 0-1.2-.5H69l-.6.2q-.4.1-.6.4-.7.5-1 1.3v.5q-.2 1 0 1.7.3.8.9 1.4.7.7 1.5 1l1.6.4h2.6q.3 0 .4-.2l.9.3.6.2.6.1.8.7.5.3.2.2.6.4 4.2 2.7h-.5l-1-.2a1 1 0 0 0-.8-.5l-.4.2h-.2l-.1.2H78l-.5-1.4-1.1-1.4q-.9-.7-1.6-.8h-.2q-.7 0-1.5.4l-.4.3-2.6-.8-2.6-.8-1.2-.3-2-.6-3.6-1-1.8-.3h.1l-2.6-.6-5.1-1.1-2.6-.5-1.6-.4-1.8-.3-.4-.2h-.2.2l1 .5.9.3a123 123 0 0 0 9.7 3l2.1.6h.5a137 137 0 0 0 13.2 2.9l-.4.6a3 3 0 0 0-.4 1.5v.5h-.3l-1 .2-2.6-.3-1.4-.2-2.9-.4-4.4-.6-1.3-.2-2.8-.5-4.4-.8-3.6-.7-1.6-.3h-.6l-1-.3-2-.4-2-.4-.9-.2h-.2l-.4-.2-4.7-1.1-3.2-1-4.1-1 1.8.7 2 .8.6.2 2.6 1 .7.3 1.9.6 2 .6.7.3 4.1 1 1.8.5 1.4.3 3.1.6 2.4.5 1.9.3 3.7.7 1.4.2.5.1 6.7.8 2 .3h1v.2l-.2.4h-.3l-1 .4-1.1.5h-10l-4-.3-4.4-.2-2.1-.2-2.1-.2-3-.5-1-.1-1.9-.4-5.1-1.2-4.5-1.4-.7-.2-1.5-.5-2-.8-2.4-1-1.9-.9-2.7-1.3-1.8-1-1.8-1-2.2-1.5-3.3-2.6-1-.8-2.1-1.7-6-5-2.5-2-1.2-1.1-4.1-3.2-3.2-2.3-1.9-1.3-.4-.2-1-.7-2.6-1.4-1.2-.6-6-3 6.4 4 .5.3 1.4 1 2.2 1.5 3.2 2.5 1 .8 1.1 1 3.5 2.8 2.7 2.2 3 2.4 3.3 2.9 3.8 3 1.6 1.3 1.8 1.4.7.5 1.3.8.6.5 1.1.6 3.8 2 1.6.8 2.6 1.1 1.6.7 2.4.9 1.4.5.4.1 2.3.7 2.2.7.6.1 1.3.3 2.5.6 1.9.4 1.5.3h.5l2.6.5 2 .2 2 .2 4.8.3 4.3.2h9.2q0 .8.3 1.2v.1l.6 1-3.4.5h-.2l-.7-.8-1.6-.6h-.4l-1.2.2h-.6q-1 .4-1.5 1t-.4 1.3q-1.2 0-2.2.3l-3.3.5-4 .5h-1l-2.2.2-2.5.2-2.8.2-3.3.1h-7.3l-2.7-.3-2.6-.2-3.4-.3h.1l-3.9-.5h-.2l-.9-.1-2-.4-1.3-.2-1-.2-3.7-.7-2.5-.6-4-.9 4.5 1.6 1.6.5 1.2.4 3.5 1 .8.1 2 .5 1.5.3 1 .2 2 .4 1.2.1h.1l3.6.4 2.8.3 2.5.1h2.2l1 .1h5.3l2.1-.2 3-.1 2.6-.2 2-.2h.9l3.7-.5 2.7-.4 3.2-.5.1.3q.6.7 1.3 1l.4.1v.1l.7.5.8.2-6.7 1.4-3 .6-4 .7-2.7.4q-1 0-1.9.2h-.6l-3.1.2-2.7.2H21.9l-4.5-.2-3.3-.2-9.1-.4 4.5.7 2.7.4 4.4.5h.1l1 .1 2 .2 2.5.2 3.8.2 1.9.1h.7-.1 6.4-.1.5l1.2-.1 3.1-.2 1.3-.1 2.6-.3 3.1-.4 4.5-.8 1-.2 2.4-.6 2.9-.5 2.6-.6 1.3-.2 4-.8 1.4-.2h.7l2 .3 1 .1.8.1h.2l.4.1h1l1.3.1-.9.3-5.2 1.8-.8.3-.3.1-.2.1-1 .4-4.9 2.2-1.4.7L56 242l-4.9 2.4 4.6-1.6 2.8-1.1 1.6-.6.7-.3 2.1-.8 1.6-.6-.3.8q0 .8.4 1.5.8 1.2 2.3 1.2h.6l.6.1h.3q.6 0 1-.4l1-1.1h.6l2.2-.4h.3l1.9-.3 4.8-1 5.2-1.2 2.3-.6-.4.2-4 1.4L80 241l-1.2.4-.4.2-1.3.5-2.8 1-2.8 1.1-1.3.5-1.6.7-3.3.3v-.4q0-.8-.7-1.3a3 3 0 0 0-1.6-.5h-.1l-1.5.3-.7.6-.4.7v.3l-.6 1.1v1a2 2 0 0 0 .8 1.2l-4.6 2-1.5.9-3.3 1.6-1.6.8-2.5 1.6-2.6 1.6-.4.2-1.2 1-2.5 1.8-.5.4-1.3 1-8.4 7.4 6.8-4.9 4-2.8.6-.4 1.5-1 1.5-1 .6-.4 2.6-1.5 2.8-1.7 1.1-.6 2.5-1.2 2.4-1.2.3-.2 1.2-.5 5.4-2.4 3.8-1.5.8-.4h.3l4.5-.8 1-.2 1.1-.2h.3l.6-.1h.2l.2-.1 4.5-1-.2.1-.1.1-5 3.8-.1.1-1.3 1q-2.5.7-5.2 1.7l-2.4.8H66l-1 .2-.9.3-.7.5-.5.4-4.5 1.9h-.1l-1.2.5-.4.2-1.1.6-3.2 1.7-3 1.6-1 .6-5.1 3.4-2.6 1.7-3.1 2.3 1.6-.8 5.3-3 3.2-1.7 1.5-.9 1.3-.6 3-1.5 2.9-1.5 1.3-.7 1-.5 2.5-1.2 1.2-.6v.2l.3.7v.3l.4.7q.2.5.5.6.7.5 1.6.5h.2q.7 0 1.5-.3l1.7-1q.7-.4 1.1-1l.3-.7.5-.3 2.3-1.7.2-.2.2-.1.2-.2-.1.7.1.8.6 1 .4.6q.3.4.7.6l.9.3q.5.3 1 .3l-1.9 1.1-2.4 1.6-.3.2-3.7 2.2-2 1q-.4.4-1 .6h.1l-1.6 1-.2.1-1.6.5-1.3 1.2-.2.3-.8.5-.3.2-2.1 1.5-3 2.2-1 .7-1.2 1-5.6 5-5 5.4a67 67 0 0 0-4.4 6l-2 3.2-1.6 2.7-2 3.7-2.3 4.5 4-5.9 5.3-7.8 3.7-4.8 4-4.5 3.8-3.6 4-3.4.6-.5 1.5-1.2 3.4-2.7.2-.1.3-.2.1-.1.6 1 .2.1-2.7 3.2-.5.7-3.1 3.9q-3.5 4.4-6.7 8.9l-.4.5-1.1 1.6-.6.9-1 1.5-.5.7-1.4 2-1.1 1.5-.5.7-2.3 3-1.2 1.4-3 4.3-.7 1-2.5 3.8-.2.4-.7 1a24 24 0 0 0-2.4 5.7zm-32-157.4.1-1v-.4l.1-.8.2-1.2.1-1.2.1-.3.5-2.6.1-.4.3-1 .5-1.6 1-2.5q1.3-2.7 2.8-5.2l3-5.2.5-.8.1-.2.3-.4.4-.8.4-.8.3-.6.2-.4.4-.8.6-1.4 1.2-2.7.4-1 .3-.8.8-1.9.6-1.4.5-1 1.7-3 2.2-3 2.3-2.2q1.5-1.4 3-2.5l.7-.5 1.4-1.2.8-.6 1.2-1 3.9-3 2.5-1.5 2.8-1.3 3.5-1 3.2-.6 5-.4h.5l1.5.1q2.3.5 4.7 1.3l.5.2 4 1.2.5.3 1.4.4 1.2.4 1.2.3 3 .8 1 .2 1.2.3.5.1.7.2q.8 0 1.4.3l2 .3 1 .2 2.5.4.8.1 1.8.3 3.6.4 1.8.1h.6l.6.1 1.8.1 6.4.3H94l3.9.2h6.2l1.8-.2h.8l1.9-.2h.7l2.2-.1-.2.1-1.3.7h.2l.8-.3 1.4-.5 2.1-.1 5.5-.4h1.1a108 108 0 0 1 19.6-.3l1.8.4 1.8.8.6.4.2.3.4.5.2.4.4.8.2.7.3 2q.3 2.6.2 5.3l-.2 2.3-.3 1.5-1 6-.7 5.8-.1 1.2-.5 4.2-.5 5.5v.7l-.2 3-.1.3v1.6l-.1.9v.3l-.4 1.7.2-.4v.3l-.4 3-.4 1.8a76 76 0 0 1-2.3 8.8l-.7 2.2-.2 1-.9 2.9-1 2.1-.1.3-1.3 1q-.7.4-1 1.3-1 1.6-.8 3.6l.1 1.2v.5l-.9 2.5-.6 1.7-.4 2.3-.7 3-.1.5.7-1.9 1.3-3.2-.6 1.6q-1 2.3-1.1 4v.3l-.5 1-.5 1-.9 1.2-.1.1-3.5 2.2.3-1.1.6-2.3.2-.7.2-.9.1-.4.4-1.2.6-1.8a18 18 0 0 0 .7-4.3 12 12 0 0 0 1.8-3.1h.1a4 4 0 0 0 1.5-1q1.3-1.5.4-3.2-.6-.8-1.3-1.2l-1-.3h-.5a3 3 0 0 0-1.3 1.2l-.4.6-.6-2.9-.1-.5q.7.4 1.4.5h.4q.8 0 1.2-.2l.7-.6.4-.7.1-.5.3-.2q.6-.7.6-1.6 0-.8-.6-1.4a3 3 0 0 0-1.6-.8h-.6a5 5 0 0 0-2.8.9q-.6.5-.9 1.1v.1l.1-.6.4-1.7.6-2.5.6-2.3q0-.8.4-1.6l.1-.7.7-2.4.6-2.3.7-3 .5-2 .8-3.3.4-2.2.7-4-1 3.7-.7 2-1.4 4.5-1.6 5-1 3.3-.5 1.8-.8 3-.2.7-.4 1.6-.4 1.8-.1.8-.5 2.8-.4 2-.4 3.4-.2 2-.1.9h-.3q-.7.3-1 .7t-.6 1l-.2.4-.1.5a3 3 0 0 0 .3 1.8l.6.9-.1 1-.1 1.7v1l-.4.6v-.2l-.2-.3v-.5l-.2-1.8-.3-1.8-.2-2.2v-.8l-.3-2.2v-.8l-.2-1 .8-.3.6-.2q.8-.5 1.1-1.2l.3-.9v-.7q-.3-.9-1-1.3-.3-.7-.9-1l-.3-.3-.5-.1h-1.1l-1.2.5v-.3l1-3.3.7-2.6.9-2.5 1.1-3.3h.1l1.4-3.6v-.2l1.5-4v.2l.2-.8.5-1.5.7-2 .9-2.8.4-1.6 1-3.8.5-2.7.5-2.6.3-2.1.1-1.2.4-3.7v-3.5l.1-1.3v-10.9.9l-.5 4.6v.4l-.6 6.2-.3 3.5-.5 3.3-.1.8-.3 2-.2 1v.3l-.3 1.2-.6 3.2-.1.4-1 3.7-.1.7-.7 2-.7 2.4-1.1 3.3-1.4 3.9-.1.1-1.4 3.6-.1.3-1.1 3-.3-.3-.2-.3-.2-.7q-.5-.6-1.1-.5h-.6l-1.8-.1q-.7 0-1.5.5-.4.3-.6.7l-.2.3-.6.6a2 2 0 0 0-.1 1.5q.3.8.9 1.4a4 4 0 0 0 2.4.9v.6l.5 2.5v.6l.1.1v.5h.1v.4l.1.2v.2l.1.3v-.1.5a44 44 0 0 0-1 12.5l-1 1.3-.2.5-1-2.2-.5-1.1-.3-.8-.5-1-.2-1.1h.8l.7-.1a2 2 0 0 0 1.3-1l.3-.6v-.2l.3-.6-.2-1.1-.4-.6-.4-.4q-1-.7-2-.6h-1.2v-.1l-.1-.1v-.1l-.1-.5-.3-2.2-.2-1.5v-.6l-.5-4.4-.2-4v-7.8.7l-.5 3.6-.2 2.6-.1 1v3.1l-.1 1v-.1 1.1l.2 3.3v.6l.1 1.2.3 2.5.2 1.4-.3.3-.6-2.8q0-.8-.3-1.6l-.1-.6-.2-1.3-.6-3-.5-3-.3-1.2-.1-1.2-.4-2.7-.6-4.2V157l-.4-2.8-.6-5.4v9.2l.2 3 .4 5.1v.6l1 5.7.6 2.6.3 1.5 1 3.6.5 2 .9 2.8.4 1h-.1l-.4-.5-1-.2h-.7l-.2-.8-1.6-5-1.7-4.9-1.6-4.8-.7-2-.7-2.6-.6-2.5-.4-1.7-.1-.7-.9-5.1-.7-5.2-.6-5.2-.7-5-.6-4.2-.4-3.4-.2-1.3v.5q0 5.4.4 10.9l.4 5.3.2 2.5.3 2.7.4 2.6.1.8.3 1.8.4 2.7.2.7.4 1.8.4 1.7.2.7.8 2.8.6 2 1 3.1 1.8 5 .9 2.5-1-1.7-.5-1-.5-1.1-1.5-3-.7-1.6-1.1-2.7-1.5-3.5-2-5.4-1.4-4.5-.3-1q-.4-1.8-1-3.5l-.1-1-.9-3.5-.1-1-.6-3.2-.5-3.7v-.8L90 137l-.2-2.8-.1-3.4-.1-2.5v-7.1l-.6 5.3-.2 2.3v2.2l-.1 3.6v4.4l.2 1.3.2 2.2v1.1l.1.1v.1l.6 3.5.5 2 .5 2.2.2.8 1 3.6 1.6 5.6v-.1l.2.5.4 1 .9 2.5 1.3 3.3 1 2.3 1.5 3.5 1.2 2.5 1 2.2-.5-.2H99q-.5 0-1 .5l-1.4-2.1q-.4-.8-1-1.5l-.3-.6-3.3-4.7-1-1.5-2.1-2.8-3.2-4.1-3.2-4-7.2-8.2 3.8 5.4 3 4.3 2.1 2.7 1.1 1.6 3 4.1 3 4.1 2 3 1 1.3 1.8 3 .7 1-.9-1-.6-.5-2-2v-.1q-.3-.9-1-1.3l-1-.4-1-1L89 173l-.6-.5-2.4-2-1.6-1.3-2.8-2.2-1.7-1.1-2.6-1.9-.6-.4-1.6-1-4.8-3.3-1.7-1.1-2.3-1.7-2-1.5-1.8-1.4-2.7-2.3-1.5-1.4-2-2-2.2-2.1-.9-1-.4-.5-2.3-2.5-.5-.5-1.2-1.4-1.4-1.6-2.2-2.6-1.5-2-2.5-3 3.4 5.3 1.3 1.8 1.1 1.6 2.1 2.8 1.4 1.7 1.2 1.5.5.5 2.3 2.5.6.7.9.8 2.3 2.2.6.5 1.5 1.2 1.6 1.4 2.8 2.2 1.7 1.2 2.5 1.8.8.5 1.6 1 4.7 3.2 4 2.9 2.9 2 .8.7.7.6 2.8 2.2 1.6 1.5.3.2a3 3 0 0 0-1.3 1l-.7 1.4-2.2-2-1.2-1.1-.3-.4-2.4-2-1.3-1-.5-.3q-1.2-1-2.5-1.8l-1.7-1-3-1.8-.6-.3-1.1-.6-1.7-.8-.7-.3-2.8-1.2-1-.3-1.5-.5 2.3 1 2.7 1.5 2 1.2 1 .6.5.3 2 1.3 1.1.8.4.3 2 1.5 1.3 1q.3 0 .5.3l.1.1 2.4 2 1.2 1 .4.4 4 3.7.5.5q.2.6.7 1h.4l1.7 1.8 1.1 1 1.2 1.3 2.5 2.7.5.5q-.6 0-1 .5a46 46 0 0 0-4.6-4.1 56 56 0 0 0-6.2-4.1l-1.7-1-1.1-.5-1-.5-3-1.3-.6-.3-1.6-.6-5.1-2.2-4.7-2-4.3-1.9-3-1.3-2.1-.9-2-1-2.6-1.2-2.1-1.2-.8-.5-.7-.5-1.8-1.2-2.4-1.5.8.7 2 1.6 2 1.6 2.5 1.8.8.5 1.6 1 .7.3 1.2.7 2.1 1 5 2.3 5.1 2.3 5 2 1.8.9 1.7.7q.4 0 .8.3l2.7 1.2 1.2.6.8.4A58 58 0 0 1 88 185l.3.3h-.5q-1-.2-1.9.7l-3.8-1.5-2.2-.7-4-1.2-.6-.2-2.1-.5-2.7-.7-3.9-.9-.8-.1-2.1-.4-6.1-1.2-4.2-1-.6-.2-1.4-.4-2.2-.7-.6-.2-1.4-.5-2-.7-3.2-1.3-2.5-1.1-1.8-.8-.7-.4-3.1-1.6-2-1-1.2-.8-.4-.3-3.8-2.4-3.7-2.8-.6-.5-1.3-1.1-2.6-2.2 1.5 1.7 2.6 2.6.2.2.6.6 1.7 1.5.7.6.2.2 1.1.8 1.9 1.4.8.6 3.2 2 .7.5 2 1 1.4.7 1 .5 2 1 .9.3 3.6 1.4.8.3 2 .8 1.5.5 1 .3 2.2.7 1.2.3 4.2 1 .5.1 7 1.4 2.5.5 3.4.8 2.7.7 2.1.5 3.4 1 1 .3 1.4.5 4.5 1.8v.2l1.1 1.3.5.4 1 .6.2.1 1.9 1.6 1.3 1.1 2.6 2.6-.5-.1-1.8-.5-.7-.2-4.6-1.2v-.5l-.1-.2-.3-.5-.7-.4-.9-.2h-.4l-.8-.4h-1l-.8.3-.5.7-3.7-.9h-.3l-.3-.1h-.3l-.1-.1h-.4l-.2-.1h-.2l-.2-.1h-.2l-.3-.2h-.5l-1.6-1.4-.5-.4.7-1 .2-1a3 3 0 0 0-.4-1.7q-.5-.8-1.2-1l-1.2-.3h-1.1q-.4 0-.7.2l-.3.2h-.1l-.4.6-.1.3-.3.2a1 1 0 0 0-.5 1q0 .6.3 1.2l1 1 1.2.6.7.2h.1l.2.2-1.5-.4-.7-.2-1.8-.5-2-.6-3.2-1-2-.7-2.3-.8-3.2-1-1.8-.6-1.8-.7-.9-.3-.7-.2-1.4-.5-2.7-1 2.8 1.4 2 1 3.1 1.4 2 .8 2.4 1 1.6.6 2.1.8 2.4.8 2 .7 3.2 1 2 .5 1.8.5.8.2h.2l.2.1h.1l-.6.7-.2.6.1.9q0 1 .7 2l.6.5.7.6 1.6.5h.2a2 2 0 0 0 1.2-.4l.2-.1h.2l.8-.5.3-.3 2.2 1.3.3.3h.2l.9.5 2 1.1 1.4 1 1.4.7.4.2 3.7 2 1.9 1-2.1-.7-1.8-.6-1.6-.6-.8-.2-1.7-.5-1-.3-2-.5-3.2-.7-1.7-.4-11-2.7-3.4-.8q-5.7-1.4-11.2-2.5l-10.4-2.1-5.7-1.2-2.2-.4-3-.6-1.7-.3-1.6-.4-1.8-.4-.6-.1-.5-.1-1.8-.5-3-.9-1-.3-.9-.3-.4-.2-1.1-.4-.9-.3-4.3-1.9-3.1-1.7-2.4-1.8-2.3-2.2-1.9-2.4-1.5-2.5-1.4-3.3q-.8-2.2-1.2-4l-.5-3-.1-3.7zm159 58h.3l1-.1h1l-2.5.9.1-.6zm-3 4.2h-.9l2.1-.5 1-.2h.1l.2.1q.4 0 .7.2l1.6.3h.2l.1.1h.4l.3.1h-2.2l-2.7-.1zm11.1 8.4zm-1.4 1.6h1.7v.2l-.8-.1zM141 260v-.1l-.2-.7-.3-1.5.1-.4.1-.5.2 1.6v.5zm-.6 13.4a1 1 0 0 0-.2 1q-.4 0-1 .5a3 3 0 0 0-1 1.9l-.2-.4-.3-.9-.3-1.4-.2-3v-3l.1-.1v-.7l.3.8 1 1.6v.2q-.1.7.4 1.5t1.4 1.2zm-12-22.6v.5l-.1-.2zm-9.2 12.6-.7.3.3-1 1-2 1.7-2.8.3-.5.3-.4.3-.4.5-.8.2-.3.2-.3.4-.7 1-1.9.3-.3.5-1q.8-1.4 1.3-2.7l.1.2a49 49 0 0 1-2 6.8l-.5 1.2-.2.6-.2.5-.5 1.2-.4 1-2.2 5.7-.2-.6q0-.4-.4-.8l-.5-.7zm-1 4zm0-8.4.2-2.2v-.3l.5.2.6.3-.9 1.7-.5 1v.2zm0-7.6 1.1-2.7.7-1.4.3-.8.8-1.7.2-.5.3-.5.1-.3.4-.7.3-.6-.1.5-.3 1-.4 2.1-.4 1.5-.4 1.6-.2.5-.5 1.6a3 3 0 0 0-2 1l-.1.1zM91 257.2l.8-.5.2-.2 1.3-.8 2.1-1.4-1 1q-.2 0-.3.2H94l-1 .9-2.1 1.9.1-.8zm-4.1-4.6 1.1-.8 2-1.5 3.3-2.5 2.5-1.6q0 .3.2.5.3.6 1.2 1.1.6.5 1.6.6h.1l-.5.2-.7.4-2 .9-.8.3-1.2.5-1.2.4-1.5.5-.5.1-1 .4-3 1zm-6.6 1.5 1.3-.6 3-1.8.6-.4.8-.6.6-.4 1.2-.8 1.5-1-.2.1-.3.3-.8.6-.8.5-.1.2-.5.3-4.2 3.3-1 .8-1.2 1-.2.1q.3-.6.4-1.3zm1.5-7.6 2.3-1.7.6-.5 1-.6 2.7-.6 10.6-2.7-3.2 1.9-.6.3-.2.1-1 .7-.8.5-4 2.5-.8.5-2.7 1.8-2.4 1.6-2.4 1.5-1.6.7-1-.6-2-.4H75q2.3-1.5 4.5-3.4zm9.1-8L88 240l-.5.3-.2.1-1.7 1.1-.7.5-.5.1-.5.1-1 .3-1.7.4H81l-.2.1-4 .9 1-.4 1.1-.5 4.2-1.5 4.3-1.7 3.8-1.6zm-11.4-6.9 2-.3 2 .4 1 .2-2.6.6q-1 0-1.7.4l-.6.1H78l-4.7-.4zM61.7 233h.2l-1.4.3h-.1l.8-.4zM91 222.3l.3.2.3.2h-.2l-1.2-.5-.4-.2-1-.4-.4-.2-.8-.4.3-.7.1.1h.2v.1l.2.1.1.1h.1l1 .7zm5.6-.7v.5l-.3 1.3-.5-.3-1.2-.7-1.3-.8-1.3-.8-1-.7-.9-.6 1.4.4.8.2 2 .5 1 .2 1.3.4zm3.9-3.6-.1.2h-.3l-.6-.1v-.1l-1.1-.7-.7-.5-.3-.2-.7-.5-.5-.3-2.4-1.5-.6-.3-.3-.2-1-.5-.9-.5-1.2-.7q.3-.2.5-.6l1 .5 1 .6 2.5 1.6.6.3.3.3.8.5.8.6 1.5 1zm-18.3-21.7 1.2.5h.1l.3.2 3.6 1.9 1 .4.4.1.6.3 7 3.5 3.1 2.4 2.4 2.3-.7-.2-.6-.3h-.1l-.2-.2-3.8-2.7-2-1.2-.3-.2-1-.6-2.9-1.5-2.9-1.6-1.6-1q-.4 0-.8-.3l-1-.7-1.7-.9-.3-.2-.4-.3zm4.2-1zm9.3-1.7h.1q.8 1.2 1.7 2.1l1 1.3-.9-.3a32 32 0 0 0-4.2-4.6l-.6-.5zM90.9 181l.3.3.4.5-.4-.3zm18.5 8.8.7-.9 1.8 5-1-1.5-1.7-2.5zM125 195v.5l-.2.3-.2.9-.2.8-.2-2.5v-3.3l.8-1 1-1 .5-.6.2-.2.2-.2-.4 1.3-.1.6-.2.6-.9 2.9zm.6 6.8-.3.4v-.5l1.2-1zm1.6 40.6-1.1 3.3v-.1l-.4-.8.5-3 .2-2.5zm-1.6 2.7.2.4v.3l.2.2-1.2 2.7zm-.6-42.6v.2zm-1-3.5v.8l-.1-1.3zm-18 40.9.3-.2.4-.2 1.2.3.4.3.4.3.3.1h-.2zm-13.4-.3.6-.3 2-1.1q0 .4.4 1l.1.2-1.8.4h-.3l-1.4.4-1.3.4zm-6.8-7.1.7-.2 1.1.2 2.4.2 1 .1 1 .1 1 .1h.2l.6.1h.8-.1.3-.2.5-.1l.4.1h.6-.1.8-.2.7l.8.1H87.3l-3.9-.1zm16-31.3v.1l.5.7.7.9 1 1.7.7 1-.4-.2-2.8-3.7zm-2.4-8.2h.2l.5.5 1 1.2q1 1.3 2.2 2.5l.7 1.1.3.6-.5-.5-1.7-1.6-.8-.7-2.1-1.8-.3-.4-.4-.5q.6 0 1-.4zm3.5-10.4.1-.3.3.5 1.3 2.4.5.8-.4.8-2.4-2.5-.7-.5a3 3 0 0 0 1.3-1.2zm-9.3 44.9-1.3-.2-1.8-.3h-.2 3.6l.4.1.3.1zm13.6-28.3.8 1-.6.2-.4-.6-.3-.6-.8-1.3zm7.5 1.7-.5-1 .5.6zm0 1.6-.5-.9zm-7.6-6 .1-.3.1-.4.5.7 2 2.8.7 1.1.2.4-2.6-3.4zm5.1 6.4h-.3l-.3-.8zm-1.2-1.7zm-5.5 1 .6.3v.4l-.4-.5zm-30 24.7-.6-.4-.4-.2-.2-.2 3 .2h.4l.6.2h.5zm21.8 4.1q0 .3.3.5h-1l-.3-.1H95h.1-.8l-.3-.1-2.3-.2-.8-.1 2.6-.8-3.7.6h-1.3l-2-.4 3.8-.7 2.5-.5h.2l1.7.3 3 .2-.6.6zm4.4 4.2h-.3.2zm14.7-38 .2.6 1 2.6-.3.5-.6-2-.2-.6-.1-.5zm-5.3-7.4.2.7.8 2.4.5 1.6.4 1-.5-.7-.5-.8-1.5-6v-.2l.1.2zm-12.2 30 .2.1.1.1h-.3zm-19 3.7h2.8l2.3.3 1.4.1h.3l.2.1.2.1.7.3.3.2.6.3.7.3-2.5-.1-4.4-.5-3.3-.7H79l.3-.4zm0 5.4-2.6-1 4-.7.6.2.6.1h.3l2 .5 2 .3 1.2.2-2.6.5-3.1.6zm22.7 17.5-.7.3-.4.3.2-.6zm-.7-1.9h-.2l-.3-1-.5-.6 2.8-1.6.1-.2.8.3.6.1 1.7.5 1.1.2-2 2h-.1l-.8.1zm9.1-9.9h-.2zm10.9 17 .4-1.3.1-.3.3-.8.3-1 .5-2 .3-1.4v-.3l.2-.5.2-1-.8 4.1zm8-52.2.8-1.1.3-.4.2-.1.2-.1 1-.6v1.2q-1.4 1.2-2.5 3l-1.4 2.2-.4.6-.3.7-1 .5-.6-.7-.2-.2.6.7-.4-.9.2-.3.5-.5 1.3-1.7.4-.6zm4 1.7-2.7 1.8-.4.2a16 16 0 0 1 2.5-3l.1-.1q.3 0 .5.2l.8.1h.1zm1.6 2.5-.5 1.2-.2.4-1 .5-.2.1-.6.3-1.9.9-.4.2-.2.1-.9-.6-.2-.1.2-.2h.2l.3-.2.7-.4.8-.4 1.5-.7.7-.3 1.5-.7zm7.1-16.4-.7 1.7-.7.9-.6 1.2-.1.4-.4 1v.2l-.2.2-.3.9-.8 1.8v-.1l-1.8 2.8v-.7l-.5-.5v-.6l-.3-.8-.2-.2-.2-.2-.3-.2a25 25 0 0 0 7.7-9.3l.3-.3zm1.4 5.5-1.6 3-.5.3-1.8 1v-.2l1.6-3.5 1.2-2.7.2-.3.3-.3.2-.1.2.4q.3.6 1 1zm2.5-1-.5.7-.1.2v-.1l-.2.4.6-1.2zm7.6 4.7-.8.9-.4.4H151l-4.3.4-3.4.7.6-.8 1-1.4 3.9-1.6 2.3-.6q.4.6 1 .9l.2.2q.6.5 1.4.5l.9-.1zm5.6 8-1.9 1-1 .4-.4-.8q-.2-.4-.8-.7l-1.3-.3-.9.1-.8.6-.4 1-1.7.3-1.8.9v-.6q0-.6-.5-1.1v-.2l2.2-1.9.6-.3.3-.6 1.1-1.1 1.3-1.5 4.3.6.5.1 1 .2q0 .6.3 1.1a3 3 0 0 0 2.2 1.5zm6.6-.2-1.4.4-1.3.4-2 .5-.7.2-.4.1-.5.1.4-.1.9-.5 1.7-1 1.8-1 1.4-.7-.1.3q-.1.7.2 1.3zm-9.6 5.4.2-1 1.3-.3 1.4-.3 1.5-.4-1.2.6-3.3 1.5zm-14 11.5h-.2v-.2l.2.1h.3zm3 8.8 1.7.4a1 1 0 0 0-.7.6l-.9-.3-.2-.1-.1-.7zm-6.1 22.7v-.5l.3.6zm-1.3 4.4v.1l-.1.2-.1.2v-.1zm-2 3.5-.1.8-.4 3.7-.2 1.9v-.5l-.1-2.1-.2-2.4v-.9l-.2-.9zm-6.8-16.5v-3.3.3l.3 3.7v1.4zm3.7-35-.6-.4-.3-.1 1-.5.4-.2zm3.3-2.5q.2 0 .3-.2l-.2.4-1.4 2.4-.2.4-.6.2-.4-.3.5-.9.8-1.4zm2.5-4.4-.8 1.6-.3.1-1.3.6.4-.7.2-.4.2-.4v-.1zm1.3-2.4-1.7.6.1-.3 1.2-.7.9-.5zm5 1.3-.4.1-1.2.4-.4.2-.4.1-.9.3-1.4.6 1-1.5 3.8-1zm1 3h-.1l-1.3.3-.5.1-1.8.6q-.3.1-.6.5l-.1.7.1.6-1 .5-3.8 1.5-.3.1.5-1 1.3-2.4h.2l.7-.4 2-.8 1-.4.9-.3.3-.1.5-.2 1-.3.8-.3a2 2 0 0 0 1.2.7zm-2.6 6 1-.5 1.4-.6-.7.6-1.3.3zm-1.5 4.1h-.6l1-.6 3.6-2.3 1.3-.3-2.4 1.3-1.7 1.2zm-5.4-5.1h-.4l.6-.8-.1.3zm2.2 4.2-.3.1h-.1l.5-.2h.4zm-1.8 26h-.1l-.1-.1zm14-31.1-1.3.3h-.3l1.5-.6h.1zM140 264.2l.2.5v.5l.1.8.1 1.8v.3l-.4.1-.6-1-.5-1.2-.4-1.5v-.1l-.4-3.1v-1a3 3 0 0 0 1.5-1v.6l.4 2.7-.2.8zm14.5-31.1a5 5 0 0 0-1.6-1.5l1 .2h.6zm1 2.3q-.7 0-1.5-.4.3 0 .4-.3.3-.2.4-.6.3.8.7 1.3zm-3.4-7.9.4.1.5.1-.2.1-.3-.1zm-7.4-.4-.3-.4h.2l.2.1 2.3.8.5.2.6.2 3 1.1-3.4-.4-2.8-.5q0-.6-.3-1zm5.8-9.6h.7l.2.3zm.4 2-.2.1h-.2q-1.2.5-2.5.8l-.6.1-1-.3-.7-.3-1.2-.3-4-1.2-.2-.1v-.1l-.2-.1v-.1l2-.1h.8l1.7-.1 1.8-.1zm-.5-6.8-1.9 1-.6.4h-2l-1.4.2h-.8l.8-.4 1.6-1 3.4-1.6h.1l2.4-1.3.3.4q.9.5 1.6.6l-1 .5-2.3 1.2zm-25.6-29 .3-2.7.1-1.4.4-2.3q0-1 .3-1.9v-.3q0 1.5.4 2.6l.3 1 .8 4.9v1.8l-.6.7-.5.5-.2-1a2 2 0 0 0-1-1.1l-.3-.3zm-3.1 15.9zm-2.7-8.3.2.6.2.6v.2l.3 3-.4.8v.1l-.8 1.5-.4 1v-.2q-.7-2.2-1-4.4l-.1-.4.1-.1.5-.5.2-.2q.8-.8 1.2-2zm-1.6-20.5-.3 1-.1-.5-.1-1.3.8-.4.1-.1zm-1 17 .1-5.6.2-1.5v.2l.3 1.7.1.7.1.3.2 1.2.2 1 .2.8v.3l.2.6.2.7v.3l.1.3-.8-.6q-.4-.2-1-.2h-.1zm-22-7.7 1.7 1.8 1.2 1.2.4.5 3.3 3.8 1 1.3 1 1.8.8 1.3-.2.2-.6.4-.4.7-.4-.6-3.7-4.9-1.7-2.2-2-2.5-2-2.5-.4-.5a2 2 0 0 0 1-.8zm-.6 9.8v.4l-1.5-1v-.7zm-2.8 6.5 4 1 1.3.5.6.7-.4.8-.2.9-3-1.7-2-1-2-.7-2.7-1-.6-.1.2-.1.3-.4 4.6 1.1zm-6.5 22.2h.1l.1.1v.1zm-2.2-1.1-.2.5-1-.5.5-.4.8.2zm-17.7 12.4 6.5-1 2.3-.4 1-.1 1 .6 2.8 1.2-3.5.6-7.1 1.2-1.5-.1h-.2l-.5-.1-1.3-.2-1.7-.3v-.2q.3-.5.2-.8zm13.7 8.4-3.5.7-1.7.3h-.4l-1.5.3v-.4l-.4-.6-.7-.8-.3-.2 1-.3 3.2-1.1 1.3-.5 3-1 .7.1h.5l1.3.1 4.2.1 3.1.1h1.4l1.4.1H92l-.7.1-1.9.5-4.5 1-2 .5-4.2 1h.1zm5.5 32.5-.8-.8-.6-.4-.6-.3.3-.6q.1-.4.4-.7l.5-.7 1-1 2.2-1.8.5-.4.9-.7.9-.7 1.6-1.4.7-.6.3-.2-.7 1-.5.7-.1.2-.1.2-.4.6-.3.8-.1.5-1.1 1q-.7 1-.7 1.7l.2.6v.1l-.4.3-.6.4-.9.8zm23-20.7q-.9.3-1.3.9-.4.3-.4.8l-.1.7v.2l-1.8 1.7-.6.7-1.5 1.5-.4.4-.5.5q-1 0-1.5.3l-1 .7q-1.2.5-2 2a3 3 0 0 0-.2 2l-1.8 1.1-.3-.2-.6-.3-.8-.1h-.4l.2-.3q1.2-1.8 2.8-3.6l1.7-2 1.2-1.1.7-.7 1.7-1.7.4-.4.2-.2 1.4-1.3.6-.5 1.7-1.6-.1.1.6-.5.6-.5 2.3-1.3 2-1.2.3-.3.9-.5 1.1-.3.7-.2-.3.3-.3.3-.2.2-.3.4-1.4 1.4-.7.7a10 10 0 0 0-2.7 1.9zm-4.3 8.8-.2-.3-.2-.4 2.7-2.7.7-.7.3.3-.7 1-.7 1-.6 1-.9 1-.3.4zm14.4-14.3-3.1 1.7.2-.2.6-.7 1.5-1.6.2-.2.3-.3 1-.5 1.7-1 .5-.2-.6.7-1.4 1.6zm-.8 4.2-.2.2-.1.3-1.2 1.7-.7 1-.2.3.3-4 3.4-1.8-.2.4-.3.5-.4.7zm-1.7 7.5-1.3 3-.3.4v.2l.3-2.1.2-1.6.2-.3.3-.4 1.6-2.4.5-.8.1-.1.1-.2v.3l-.8 1.8-.6 1.5v.2l-.2.4zm2.8 19.9v-.1l.5-3.1.2-2h.6l.8-.1.3-.2-.2.6a28 28 0 0 0-.6 4.8l-.8.5-1 1.2-.2.6.4-2.3zm14-14.1-.8-4v-2.6l.3-3.2v-2.6q0-2.7-.2-5.3l-.6-3.3.1.4.2.6.1.4.5 1.8.5 2.3.2.8.2.7v.3l.1.4.5 2.8.3 1.8.2 1.6v1l.3 2 .2 2.4.1 1.3.4 5.7v3.8l-.2 3-.4-2.4-.3-2.2-.6-2.8-.5-2.4-.5-2.4zm8 25.2q0-.6-.2-1-.5-1-1.5-1.1h-.3q-.5-.1-1.2.4l-.3-.1-.3-.5-.1-.4v-.4l-.2-1.3.1-2.4v-.8l.1-1.7v-1.3l.2-2.7v-1q.1 2 .8 4 .5 1.2 1.5 2 .1.6.5.9l.8.2.7-.1.4-.2v.5l-.6 4.5-.2 1.9zm6.8-36.1-1-.5-.8-1.8.3.1h.3l1 1.6.3.6zm6 15.2-.4-1-.4-.8-.7-1.4-.9-1.7-2.6-4.7 2 4.9q1 2.3 1.8 4.7l.3.8v-.1l-.4-.4-.4-.4-1.2-2.2-1.2-3-.7-2.2v-.5l-.4-1-.8-3.4-.1-.4-.5-1.8.8.6.7.6.3.3.8 1.2 1 2 1.1 2.2v.2h.1v.2l.2.3v-.1.2l.2.3v.1l.2.3v.2l.1.2.1.1.1.3v.2l.3.4.4 1.2.5 1.4.6 1.8q-.5 0-.9.4zm.5-23.3.2.1.5.5 1 1 .6.7.8.8.8 1 .6.8 1.5 2 1.6 2 1.5 2.1.6.8-.5.2h-.4l-2-2.6-1.8-2.2-1.8-2.1v-1q-.1-.8-.8-1.2l-.8-.4-.3-.1a3 3 0 0 0-2.4-.6l-3-1.5q-1.8-.8-3.6-1.3l-.5-.2-.8-.3h-.1l-.3-.3-.1-.1-1.2-1-.4-.9q-.6-.8-1.2-1l-1-.3h-.1l-.9-.8-.3-.7.5-.4v-.1q.3 0 .3-.3l2.9 1.6 1.4.8 4.3 2.3 1 .6zm9-14.5h.1l-.6.3-.5.1-.5.2-.3.1h-.1l-1.4-.3v-.3l.1-.1a1 1 0 0 0 0-1l-.4-.3-.6-.2h-.3l-.6-.3-1.8-.6-2.7-.6-1-.3-4.7-1.3-1.4-.5-1.3-.4v-.2l4 .2h1.7l.4.2.8.3.8.4 1.7.7 3 1.4zm18.9-12.7-.8-.2h-.2l-.7-.1-1.6.3-.3.2-4-.7h-.2l-.9-.1q-1 0-1.9-.2h-.3l1.8-1 .3-.2 4-1.4.3-.1 1.2-.5.7-.4.7-.4.8-.4 1-.4 1.2-.7 4.5-2a19 19 0 0 1 4-.8h1.2q.2 1.7 1.2 2.4l.2.2-4.3 1.9-3.3 1.7-2 1.3zm-63.8-112.8.9-1 .8-1 2-3.8.5-.8.6-1.4 1.2-2.8.7-1.7.5-1.4.5-1a10 10 0 0 1 1.8-2.3 24 24 0 0 1 4-3l2.1-1 3-1 3.4-.6 4-.3 2.4.1h.8l.8.1h.4l.5.1.6.1 2.3.4q.8 0 1.4.3l.6.2 3.3.8.6.1 2 .6 1.1.4.5.2 3 1 .4.2 8.1 3.9 2.6 1.7 2 1.8 1.2 1.4.5.7 1.5 3 .2.3.4.8.7 1.1.6.8.2.3.1.2.6.7 5.3 6.3.4.4 3.4 4 .3.3 3.4 4 2.3 2.3 1.4 1.2.6.5.7.7.4.3h.2a26 26 0 0 0 6 3.9l5 2.2 5.5 2.2h-.3q.6 0 1 .3l1.8.8 1 .4 1.8.9.8.4 2 1 1.1.6 1.4.7 2.5 1.5 2.6 1.8 4 3.6.2.2.2.3.5.5 1.5 2 .7.9 2.5 3.4 1.4 1.8 2 2.5h-.1l.2.3 2.8 4.2q1.4 2.6 2.5 5.2l.1.4 1.1 2.5.3.7 1.2 2.3.2.5.6 1.2q1 1.8 1.8 3.8l1 3.2.8 3.4v.6l.7 4.7-.1 1.6-.6 2q0 .5-.3.8l-1.5 1.8-.8.8-.9.5-1.2.6h-.2l-3.4-1.5q-2.7-1.2-5-2l-.4-.1-2.2-.7-.7-.2-3-.7q-3.5-.7-6.4-.8h-1.2l-2-.2h-3.2l-2.2.1h-.8l-1.8.1-1.8.2-1.7.1-1.8.2-.8.1-.7.1-1.6.3-2.4.4-1.2.3-5.2 1.3-5 1.9-3.1 1.4-1.6.7-.8.4-.6.3-1.6.9-3.1 1.8-1.7 1-.9.7-2 1.3-1.4 1-.7.5-4.8 3.5-3.5 2.4-1.1.7-1.4.9-.6.3-1.2.7-1.2.7-1.4.8-3.4.3-4 .1h-.9l-1.9.1h-.3l-1.4.1h-.7l-1.1.1H151l-2.4.2 2-.8 4.6-1.8 4.5-1.8 2.3-1 2.6-1.2h.1l2.6-1.4.4-.3.7.3h1.7a4 4 0 0 0 1.7-.9l.4-.7.2-.7-.1-.5.6-.3.7-.5 1.6-1 .8-.5.5-.3h-.1l2.2-1.5h-.1l.4-.2h.1v-.1l.8-.5 1.4-1.1 1.5-1.1 4-3.1 2.8-2.1 1.6-1.3 2-1.5 2.3-1.7 2.6-1.6 3.5-2.2-3.5 1.7-2.9 1.5-.7.4-1.6 1-1.9 1.2-2 1.3-2.6 1.9-4.3 3-3.9 3q-.3 0-.4.3l-2.1 1.4-.3.2h-.2v.1l-.9.6-1.5 1-1.4.8-.7-.4h-1.9l-.3.1-.5-.1h-.1l2.7-1.6 2.1-1.2 1.9-1 1-.6 3-1.7 2.2-1.4 2.2-1.4 2.7-1.7 3.1-2.2 1.4-1 1.6-1.1 1.5-1 1.5-1.2 3-2 1.4-1 2.3-1.6 2.4-1.5 1.8-1 1-.7 2.7-1.5.2-.1h.1l2.3-1.3 1.1-.5 1.5-.7.8-.3 1.5-.7 2.4-1 2.1-.8h.1l.2-.1 1.4-.5 3.4-1.1-3.5.7-3.4 1-2.8.8-1.3.5-1.3.5-1.6.6-1.1.5-1.6.7-1.2.5-2.8 1.5-.8.5-1.5.8-2.3 1.5-2.3 1.5-2.4 1.6-2.8 2-1.3 1-1.6 1.1-1.5 1-1.5 1.1-3 2.1h-.1v.1l-4.2 2.7-2.4 1.5-3.2 1.8q-2.2 1.4-4.6 2.6l-5.2 3-.2-1q-.3-.6-1-1.1v-.2a1 1 0 0 0-1-.6h-.2l-.4.1h-.6q-.7 0-1.3.3l-1.9-.4-3.2-.6h-.2l2.3-2.3 2.3-1.6.4-.1.6.6q.8.7 1.7 1 .6.3 1 .2h.4q.7 0 1.2-.3l.4-.2.5-.2a2 2 0 0 0 1-1 2 2 0 0 0 0-1.6v-.1a1 1 0 0 0-.3-1l-1.2-.7-.8-.2-1.4-.3h-1l-.8.2-.5.1-.2.1q-.7.4-1 1l-.1.6-.8.4-2.5 1.6-.2-.1-.4-1q-.7-.7-1.5-.8h-1.8l-.6.2q-1.1 0-2 .4-1.5.3-3 1l.3-.5 2.1-3 3.1-4q.7-1.2 1.6-2.1.8-1.2 2-2.5l3-3 4.3-3.5 5-3 4-2.1-9 4a37 37 0 0 0-6 4.2l-2.5 2.4-1 1.2-1.6 2-3 4.1-1 1.2-.2-.6 1.7-3.2 2.5-4.8 1.2-2.3.7-1 .6-1.1.8-1.1.5-.8.2-.2 1.6-2 3-3.1 2.8-2.3 1-.8 1.2-.9 2.3-1.5 2.3-1.6 2.5-1.7.2-.1.1-.1.1-.1h.1l2.2-1.6q1.2-.7 2.4-1.7h.2l.7-.5 1.4-.9.6-.4 1-.5 1.8-1.1 2.1-1.1 3.2-1.4 4-1.7-4.2 1.3-.8.2-1.6.6-1 .3-1.4.6-1 .4-2.6 1.3-.8.5-1.6.9-2 1.2-2 1.3-4.5 3-2.3 1.6-2.3 1.6-1.4 1-.9.7-1 .8-1.1.9-2.6 2.4-1.5 1.7-1.1 1.4-.5.7-1 1.4-.5.8-1 1.5-1.2 2.2-2.4 4.6-2 3.6-.8-.2q-.6 0-1 .2h-.7l1.7-3.5 1-2 .7-1.3.3-.6 2.2-3.9 1.2-1.8 1.2-1.9.4-.5.9-1.3.9-1.2q0-.3.3-.5l3-3.5 4.5-4.6 5-4 1.6-1 1.1-.8q.3 0 .5-.3l3.4-1.9 2.2-1 1.6-.9 4.2-2 5.5-2.5 2.1-1 3.3-1.7.2-.1.3-.2 1-.5 2.2-1.2 2.7-1.6 2.1-1.4 1.6-1 .9-.6 2.2-1.7 2.7-2.2-2 1.3-1.4.9-1 .7-1 .6-1.6.8-2.2 1.2-1.8.9-.9.5-4 2-2.8 1.3-5.2 2.5-4.4 2-3.3 1.5-2.1 1.1-2.2 1.1-3 1.7-.7.4-1.7 1.1-1 .7-1.6 1.2-1.5 1.2a58 58 0 0 0-5.7 5.4l-1.3 1.4-1.2 1.4-1.2 1.4-.4.5-2 2.9-.6.7-.7 1-1.6 2.7-.4.7-1 1.6-1 1.8-1.4 2.8-.8 1.6-.2.4v-1.2a2 2 0 0 0-1-1l-.7-.2-1 .2q-.6 0-1.3.4l-.6.6-1 1q-.7 1-.4 1.7l.3.6.5.4.8.1h1l-.3.5-2 2.5-1.9 2-2.7 2.2a18 18 0 0 0 2.5-7.5l1-2 1.3-2.6.4-.8.7-1.6.9-2h2.3q1-.3 1.4-.8.5-.7.3-1.6v-.3l-.1-.5-.3-.7a2 2 0 0 0-1.3-1l1-2 1.4-2.6 2.5-4.6 2.5-4.2 1.2-2 1.5-2.4 3-4.5 2.9-4.7 2.6-4.2 3.4-5.5-.5.5-6.5 8.8-3.4 4.7-1.2 1.8-1.6 2.2v.2l-2.3 3.5-1.1 1.9-1.2 2-2.4 4.3-1.2 2.1-1.1 2.3.3-1.2 1.5-5.2 2.8-5.4 1.4-2.7 1.7-3.5.4-1 .8-1.8 1-2 1.8-4.1 1.2-3 1-2.8 1-2.3.4-1.3 1.5-4.5.5-1.5.7-2.5.3-1.1 1-5.7v-1.8l.1-2.1v-3.5l-.1-1.4-.2-2-.2-2-.6-3.9.1 3.5v7.9l-.3 2.7q-.2 2.5-.7 5l-.5 2.2-.4 1.5-.3 1.3-.6 2-.3 1-1.5 4.4-1 2.7-.7 2-1.7 4-1.3 3-1.2 2.7-1.6 3.6-1 2.2-1.2 2.4v-.1l-.6 1.3v-.1l.2-.8v-.8l.1-.4v-.4q.3-1 .3-2.3l.5-5.5.1-1.4.1-1.6.2-.4.3-.6 1.8-4.2 1.3-3.2.8-2.2.8-2.2 1-3 .1-.4.3-1.1.5-2v-.5l.3-1.1q0-1 .3-1.7v-.5l.2-1 .2-2v-1.4l.2-1.8v-1l-.7 4.1-.7 3.4-.4 1.6-.5 1.7-.5 1.7-.6 1.6-.3 1-.6 1.6-1.7 4.4-1 2.2-.8 2v.2q0-1.7.3-3.4v-.8l1.5-10.4.1-.6.3-1.8q0-.4.2-.7l.2-1.8q.2-2.1 0-4.8v-2.4q-.4-3.5-1.7-5.7a8 8 0 0 0-4.6-3.2q-2.7-1-6.1-1h-4.3q-5.1 0-10.1.3l-2.4.2-3.1.3h-1.6zM287 242.4l-.2-2v-.2l-.2-1.7v-.6l-.1-.4-.1-1.1-.1-1.2q0-2.1-.3-4.1-.3-2.7-1.2-5a33 33 0 0 0-2.8-6l-.2-.3-.3-.5-.6-1-1.7-2.7-1.8-2.6-2.3-2.6q-1.9-1.8-3.9-3.4l-.6-.5-1.4-1.2-.7-.6-1.5-1.2-.8-.7-1.6-1.3-1.3-1-.9-.7-.9-.6-.3-.3-1.2-.8-.8-.4-.3-.3-.4-.2-1-.6-2-1-.7-.4-.8-.4 1.8-.6 1.8-1.2q1.9-1.6 2.7-3.6t.8-4.9q0-2.3-.3-4.4v-.2q-.4-4-1.4-6.7-1.1-3-2.5-5.5l-.7-1.5-2.2-5-.2-.4-1.8-3.9a41 41 0 0 0-3.8-5.8l-1.7-2.2-1.7-2.2-.7-1-1.7-2.3-1-1.5-.5-.5-.8-1-.5-.5a35 35 0 0 0-9.8-7.8l-.6-.3a86 86 0 0 0-8.3-4.2l-6.7-2.7-2-.8h.3l-.6-.2-6.4-3-2.4-1.7-.2-.1-2.3-2-2.5-2.3-3.4-3.8-3.5-4.1-2-2.4-1.6-1.7-3-3.8-.4-.4-1-1.4-.2-.4-.4-.6-.6-1-.3-.8-.6-1q-.9-2-2.1-3.3a26 26 0 0 0-6.1-4.7l-5.3-2.7-.5-.2-1.7-.7-.8-.3-1-.4-.3-.2-.4-.1-1-.3-.8-.3-1.6-.6-.6-.2-2-.5-.9-.3-2-.5-1.7-.4h-.3l-.8-.2-1.7-.3h-.2l-.9-.2-.8-.1-2-.2h-.6l-2.6-.1h-1.5a40 40 0 0 0-7.4 1.3q-4 1-6.9 3.2l-2.7 2.3q-1.2 1.2-2.2 2.8a16 16 0 0 0-1.4 4l-.2.7a62 62 0 0 1-2.5 7.3v.1l-1.3 2.8-1 1.5-.6.8-.1.1-2.1.1-5.3.3h-1l-2 .2h-3l-.7.1H96l-.3-.1-4.8-.2h-.7.1-1.2l-2.7-.2H85l-2.7-.3-2.1-.2h-.7l-1.3-.2-2.2-.3-1.8-.3-3.4-.6-2.5-.6-1.1-.2-6.6-1.8-1.7-.6-.7-.2-5.4-1.7q-3-1-6-1.2h-.1q-3 0-5.6.6-2.5.3-5.4 1-4 1.3-6.9 3.1-3 2-5.6 4.2l-.6.5-3.5 2.8-.8.6q-3 2.4-5 4.9l-2.3 3.1-1.7 3.1-.4.9L8 122l-.6 1.5-.5 1.2-.4 1L6 127l-1 2.6-.3.5-2 3.9-.1.1-2.3 4-3 5.1q-1.4 2.6-2 5l-.2.5-.3 1-.3 1.4-.5 2.2-.1.5-.3 2-.1.8v1.4l-.1.4v3.6h-.1l-2.8.5-3 .7-.7.1-5 1.4-5.8 1.9-1.8.7-.5.1-.7.3-1.6.6-.6.3a46 46 0 0 0-8.5 4.2 15 15 0 0 0-4.8 5 12 12 0 0 0-1.6 6.8q.2 1.8.9 4l1 2.6.3.8.7 1.7.4.7 1 2 1.1 2.3.3.5.3.5 1.2 2 1 1.6.5.5 3.3 4.2 1.3 1.5 2.3 2.7.6.6q.8.7 1.3 1.6l1 1.2.8 1.2.7 1 .8 1.2.6 1.2.3.6.3.5q1.3 2.5 2.4 5.2v.2l1.1 3.7.5 3.1.1.8.1.9v1.2l.1.4v4.7l-.1.8-.2 1-.1 1.2-.1.6-.5 2v.1l-.7 3.1-1.4 4.9-.5 1.4-3 10.8q-.9 3.2-.8 6.8l.2 3.5v.6l.3 2.1v.8l.4 2 .1.7.4 2 .5 1.7.1.4v.2l.4 1 1.6 5.2.2.6 1 3q1.3 3.9 3.7 6 1.5 1.4 3 2.1l2 1 2.7 1.2q2.6 1.4 5.6 2.3l2.5.4.5.1 1 .1.6.1 1.3.2 2 .5 1.4.6L9 314a17 17 0 0 1 3 2.4l.2.3.7.8.2.1a21 21 0 0 0 3.4 2.7l1.9 1.4 1 .4h.3q.7-.3 1-1l.5-.4h.1q.8 0 1.3-.2l1.9-1 1.7-1q.8 0 1.4-.4l.6-.2q-.4 1.7-.6 3.7a21 21 0 0 0 3.8 13.8q2.3 3 5.5 4.9l3 1.5.5.2.3.1q1.3.8 2.7 1.3a33 33 0 0 0 7 2l5 1.3 1 .6.3.3v.2l.4.5 1.6 3.7.3.9v.6l.1 1-.2 2-.1.9a13 13 0 0 0 .5 5.6q.9 2.4 2.5 4.5l1.5 2 1.5 1.5.3.3.4.5.2.1.2.3.6.6 1 .8.2.3.6.4.4.4.5.3.3.3.6.4.6.4.7.4.2.2.7.5.7.4 1.7.9.7.4 1.9.9h.3l2.4 1 5.5 2 2.2.8.5.1 2.4.7h.4q2 .6 4 .8h.5q1.7 0 3-.5a12 12 0 0 0 3.1-1.6 20 20 0 0 0 7.3-10.6l.3-1.2v-.2q.2 0 .3.2l.5 1 .8 1q.4.8 1.3 1.8v.1l2.4 3.1a14 14 0 0 0 3.5 3.1l2.8 1.8a14 14 0 0 0 6.8 1.9h.3q1.9 0 3.7-.3h.4l2.6-.3 1.6-.3 1-.2.4-.1 3.3-1 1.9-.6 2.9-.8 1.1-.2 1.4-.4 5.4-1.4 2.9-.7 5.8-1.7 1.9-.6 1-.3q3.8-1 7.2-2.8l3-1.9.6-.4 3.3-2.4a19 19 0 0 0 4.6-9l.8-3 .5-1.8.2-.7.2-.6.6-1.8.3-.8.5-1.7.1-.6a37 37 0 0 0 1.1-6.4V337l1.2 1.2q2 1.8 4.3 3.1l2.4 1.4 2.3 1h.3l1.6.7 1 .3 2 .8.4.1q.3 0 .5.3h.4l1.7 1 1.5.6 2 .8a15 15 0 0 0 5.4.8h3.2l.7-.1q1 0 2.1-.4l4.4-1.4 3.7-1.7.1-.1 1.5-.8 1.3-1 1.5-1.2.8-.7.8-.7 3.3-3 .3-.3.6-.7.6-.6.5-.7.8-1 .3-.4.5-.7 1.6-2.3 1.5-2 2.3-3a17 17 0 0 0 2.8-5.2l.1-.6q1.5-3.7 2-7.5.3-1.6.2-3.6l-.3-2.2-.1-.8-.4-2-.1-.5-.6-2.2-.5-1.7-.7-2.5-.5-2.7-.1-2.2v-1.5l.3-.9.2-.6.2-.5.3-.4.4-.4.5-.5.7-.4.7-.3 1.3-.5 3.2-.6h.5l2.5-.5a66 66 0 0 0 10-2.8q3.6-1.5 5.8-4.3 2.5-3.2 4-6.7l2-4.6a38 38 0 0 0 1.9-7.3l.3-2 .1-.3.6-2.5.4-1.7.9-3q.9-3 .8-5.2v-2.8" style="fill:#074d07;fill-opacity:1;fill-rule:nonzero;stroke:#114d07;stroke-width:.035;stroke-opacity:1;stroke-dasharray:none"/></g></svg>