<?xml version="1.0" encoding="UTF-8"?>
<svg data-bbox="12.14 9.024 89.275 91.137" xmlns="http://www.w3.org/2000/svg" viewBox="0 0 110 110" height="110mm" width="110mm" data-type="color">
    <g>
        <path d="M57.136 43.991c-4.348-2.228-7.959-6.639-8.488-11.136-.528-4.496 2.025-9.078 7.007-14.293 4.982-5.215 12.393-11.061 16.569-9.176 4.175 1.886 5.115 11.503 4.48 18.946-.634 7.443-2.842 12.711-6.489 15.322-3.646 2.611-8.732 2.566-13.08.337z" fill="#e3eeff" data-color="1"/>
        <path d="M47.77 64.754c2.785 3.935 3.874 9.47 2.192 13.69-1.681 4.221-6.133 7.128-13.038 9.5-6.906 2.372-16.265 4.208-19.062.656-2.797-3.553.97-12.495 5.09-18.8 4.12-6.307 8.594-9.977 13.072-10.645 4.478-.668 8.96 1.665 11.746 5.6z" fill="#ffdcc3" data-color="2"/>
        <path d="M66.997 55.725c.522-6.326 4.865-12.004 13.466-11.478 8.601.526 21.46 7.258 20.936 13.583-.522 6.326-14.425 12.246-23.026 11.72-8.6-.527-11.899-7.5-11.376-13.825z" fill="#ffdcc3" data-color="2"/>
        <path d="M59.112 68.612c5.125-3.185 11.817-2.704 16.054 5.013 4.236 7.717 6.018 22.67.892 25.855-5.126 3.185-17.16-5.398-21.396-13.115-4.236-7.717-.676-14.567 4.45-17.753z" fill="#e3eeff" data-color="1"/>
        <path d="M44.375 51.004c-2.969 3.12-7.96 4.942-12.489 4.052-4.53-.89-8.597-4.494-12.858-10.404-4.261-5.911-8.716-14.13-6.116-17.203 2.6-3.073 12.253-1.002 19.483 1.788S44.43 35.535 46.359 39.5c1.93 3.964.984 8.384-1.984 11.505z" fill="#e3ffd3" data-color="3"/>
        <path d="M62.057 54.507a7.266 6.685 0 0 1-5.281 7.94 7.266 6.685 0 0 1-8.788-4.614 7.266 6.685 0 0 1 4.743-8.222 7.266 6.685 0 0 1 9.078 4.11" fill="#fff1c7" data-color="4"/>
    </g>
</svg>
